# xmcd CD database file
#
# Track frame offsets:
#	150
#	22283
#	47222
#	63493
#	84994
#	98365
#	121590
#	136289
#	149166
#	168261
#	184616
#	202378
#	226208
#
# Disc length: 3272 seconds
#
# Revision: 0
# Processed by: cddbd v1.5PL3 Copyright (c) Steve Scherf et al.
# Submitted via: CDex 1.50
#
DISCID=b50cc60d
DTITLE=Lutz Eikelmann - Schwarze Augen
DYEAR=2000
DGENRE=Jazz
TTITLE0=Royal Garden Blues
TTITLE1=Auf der Sonnenseite der Welt
TTITLE2=Doin' The New Lowdown 
TTITLE3=Jeep's Blues
TTITLE4=Schwarze Augen
TTITLE5=My Heart's Still Aching
TTITLE6=It's Tight Like That
TTITLE7=American Minstrel Medley
TTITLE8=Ice Cream
TTITLE9=When You Wish Upon A Star
TTITLE10=Somewhere Over The Rainbow
TTITLE11=Ich träume jeden Tag von Liebe
TTITLE12=The Party Is Over
EXTD=YEAR: 2000
EXTT0=
EXTT1=
EXTT2=
EXTT3=
EXTT4=
EXTT5=
EXTT6=
EXTT7=
EXTT8=
EXTT9=
EXTT10=
EXTT11=
EXTT12=
PLAYORDER=
